# Blender v2.92.0 OBJ File: 'cosma7_rack.blend'
# www.blender.org
mtllib basic_rack.mtl
o Cube.010_Cube.013
v 0.919943 0.000000 1.734000
v 0.919943 0.066000 1.734000
v 0.919943 0.000000 0.066000
v 0.919943 0.066000 0.066000
v 0.985943 0.000000 1.734000
v 0.985943 0.066000 1.734000
v 0.985943 0.000000 0.066000
v 0.985943 0.066000 0.066000
v 0.080000 0.000000 0.934581
v 0.080000 0.066000 0.934581
v 0.080000 0.000000 0.868581
v 0.080000 0.066000 0.868581
v 0.920000 0.000000 0.934581
v 0.920000 0.066000 0.934581
v 0.920000 0.000000 0.868581
v 0.920000 0.066000 0.868581
v 0.013793 0.000000 1.734000
v 0.013793 0.066000 1.734000
v 0.013793 0.000000 0.066000
v 0.013793 0.066000 0.066000
v 0.079793 0.000000 1.734000
v 0.079793 0.066000 1.734000
v 0.079793 0.000000 0.066000
v 0.079793 0.066000 0.066000
v 0.000000 0.065000 0.066000
v 0.000000 2.581000 0.066000
v 0.000000 0.065000 0.000000
v 0.000000 2.581000 0.000000
v 0.066000 0.065000 0.066000
v 0.066000 2.581000 0.066000
v 0.066000 0.065000 0.000000
v 0.066000 2.581000 0.000000
v 0.000000 2.580910 0.066000
v 0.000000 2.660910 0.066000
v 0.000000 2.580910 0.000000
v 0.000000 2.660910 0.000000
v 1.000000 2.580910 0.066000
v 1.000000 2.660910 0.066000
v 1.000000 2.580910 0.000000
v 1.000000 2.660910 0.000000
v 0.934000 0.065000 0.066000
v 0.934000 2.581000 0.066000
v 0.934000 0.065000 0.000000
v 0.934000 2.581000 0.000000
v 1.000000 0.065000 0.066000
v 1.000000 2.581000 0.066000
v 1.000000 0.065000 0.000000
v 1.000000 2.581000 0.000000
v 0.000000 0.000000 0.066000
v 0.000000 0.066000 0.066000
v 0.000000 0.000000 0.000000
v 0.000000 0.066000 0.000000
v 1.000000 0.000000 0.066000
v 1.000000 0.066000 0.066000
v 1.000000 0.000000 0.000000
v 1.000000 0.066000 0.000000
v 0.014000 2.579850 1.800040
v 0.014000 2.645850 1.800040
v 0.014000 2.579850 1.734040
v 0.014000 2.645850 1.734040
v 0.986000 2.579850 1.800040
v 0.986000 2.645850 1.800040
v 0.986000 2.579850 1.734040
v 0.986000 2.645850 1.734040
v 0.014000 0.066000 1.800040
v 0.014000 2.580000 1.800040
v 0.014000 0.066000 1.734040
v 0.014000 2.580000 1.734040
v 0.080000 0.066000 1.800040
v 0.080000 2.580000 1.800040
v 0.080000 0.066000 1.734040
v 0.080000 2.580000 1.734040
v 0.920000 0.066000 1.800040
v 0.920000 2.580000 1.800040
v 0.920000 0.066000 1.734040
v 0.920000 2.580000 1.734040
v 0.986000 0.066000 1.800040
v 0.986000 2.580000 1.800040
v 0.986000 0.066000 1.734040
v 0.986000 2.580000 1.734040
v 0.014000 0.000000 1.800040
v 0.014000 0.066000 1.800040
v 0.014000 0.000000 1.734040
v 0.014000 0.066000 1.734040
v 0.986000 0.000000 1.800040
v 0.986000 0.066000 1.800040
v 0.986000 0.000000 1.734040
v 0.986000 0.066000 1.734040
v 0.014000 2.646000 1.800000
v 0.014000 2.660000 1.800000
v 0.014000 2.646000 0.066000
v 0.014000 2.660000 0.066000
v 0.986000 2.646000 1.800000
v 0.986000 2.660000 1.800000
v 0.986000 2.646000 0.066000
v 0.986000 2.660000 0.066000
v 0.986000 -0.000000 1.800000
v 0.986000 2.660000 1.800000
v 0.986000 -0.000000 0.066000
v 0.986000 2.660000 0.066000
v 1.000000 -0.000000 1.800000
v 1.000000 2.660000 1.800000
v 1.000000 -0.000000 0.066000
v 1.000000 2.660000 0.066000
v 0.000000 -0.000000 1.800000
v 0.000000 2.660000 1.800000
v 0.000000 -0.000000 0.066000
v 0.000000 2.660000 0.066000
v 0.014000 -0.000000 1.800000
v 0.014000 2.660000 1.800000
v 0.014000 -0.000000 0.066000
v 0.014000 2.660000 0.066000
v 0.013916 0.063581 1.253064
v 0.013916 2.463581 1.253064
v 0.013916 0.063581 0.193064
v 0.013916 2.463581 0.193064
v 0.201256 0.063581 1.253064
v 0.201256 2.463581 1.253064
v 0.201256 0.063581 0.193064
v 0.201256 2.463581 0.193064
v 0.798237 0.063581 1.253064
v 0.798237 2.463581 1.253064
v 0.798237 0.063581 0.193064
v 0.798237 2.463581 0.193064
v 0.985577 0.063581 1.253064
v 0.985577 2.463581 1.253064
v 0.985577 0.063581 0.193064
v 0.985577 2.463581 0.193064
vt 0.762957 0.730827
vt 0.762957 0.755639
vt 0.738145 0.755639
vt 0.738145 0.730827
vt 0.696083 0.751880
vt 0.696083 0.776692
vt 0.671271 0.776692
vt 0.671271 0.751880
vt 0.762957 0.755639
vt 0.762957 0.780451
vt 0.738145 0.780451
vt 0.738145 0.755639
vt 0.671271 0.776692
vt 0.671271 0.801504
vt 0.646459 0.801504
vt 0.646459 0.776692
vt 0.646459 0.751880
vt 0.696083 0.801504
vt 0.779728 0.730827
vt 0.779728 0.755639
vt 0.778746 0.755639
vt 0.778746 0.730827
vt 0.806839 0.631579
vt 0.782027 0.631579
vt 0.782027 0.315789
vt 0.806839 0.315789
vt 0.702682 0.741353
vt 0.702682 0.766165
vt 0.701700 0.766165
vt 0.701700 0.741353
vt 0.806839 0.315790
vt 0.782027 0.315790
vt 0.782027 0.000000
vt 0.806839 0.000000
vt 0.840655 0.315790
vt 0.840655 0.631580
vt 0.839674 0.631580
vt 0.839674 0.315790
vt 0.840655 0.000000
vt 0.840655 0.315789
vt 0.839674 0.315789
vt 0.839674 0.000000
vt 0.762957 0.830075
vt 0.738145 0.830075
vt 0.738145 0.805263
vt 0.762957 0.805263
vt 0.671272 0.801504
vt 0.671272 0.826316
vt 0.646460 0.826316
vt 0.646460 0.801504
vt 0.696083 0.826316
vt 0.671271 0.826316
vt 0.671271 0.801504
vt 0.696083 0.801504
vt 0.731422 0.801256
vt 0.731422 0.826068
vt 0.706610 0.826068
vt 0.706610 0.801256
vt 0.738144 0.780451
vt 0.762957 0.780451
vt 0.762957 0.805263
vt 0.738144 0.805263
vt 0.762957 0.780451
vt 0.787769 0.780451
vt 0.787769 0.805263
vt 0.762957 0.805263
vt 0.828874 0.000000
vt 0.828874 0.945865
vt 0.827892 0.945865
vt 0.827892 0.000000
vt 0.409702 0.000000
vt 0.409702 0.945864
vt 0.384890 0.945864
vt 0.384890 0.000000
vt 0.830837 0.000000
vt 0.830837 0.945865
vt 0.829856 0.945865
vt 0.829856 0.000000
vt 0.434515 0.000000
vt 0.434515 0.945865
vt 0.409702 0.945865
vt 0.409702 0.000000
vt 0.781692 0.755638
vt 0.781692 0.780451
vt 0.780710 0.780451
vt 0.780710 0.755638
vt 0.704645 0.766165
vt 0.704645 0.790977
vt 0.703664 0.790977
vt 0.703664 0.766165
vt 0.706609 0.741356
vt 0.706609 0.771431
vt 0.705627 0.771431
vt 0.705627 0.741356
vt 0.676537 0.375940
vt 0.646461 0.375940
vt 0.646461 0.000000
vt 0.676537 0.000000
vt 0.705627 0.741356
vt 0.705627 0.771431
vt 0.704646 0.771431
vt 0.704646 0.741356
vt 0.706612 0.375940
vt 0.676537 0.375940
vt 0.676537 0.000000
vt 0.706612 0.000000
vt 0.837710 0.000000
vt 0.837710 0.375940
vt 0.836728 0.375940
vt 0.836728 0.000000
vt 0.837710 0.375940
vt 0.837710 0.751880
vt 0.836728 0.751880
vt 0.836728 0.375940
vt 0.829856 0.000000
vt 0.829856 0.945865
vt 0.828874 0.945865
vt 0.828874 0.000000
vt 0.484139 0.000000
vt 0.484138 0.945865
vt 0.459327 0.945865
vt 0.459327 0.000000
vt 0.831819 0.000000
vt 0.831819 0.945864
vt 0.830837 0.945864
vt 0.830837 0.000000
vt 0.459326 0.000000
vt 0.459326 0.945864
vt 0.434514 0.945864
vt 0.434514 0.000000
vt 0.702682 0.766165
vt 0.702682 0.790977
vt 0.701700 0.790977
vt 0.701700 0.766165
vt 0.703664 0.766165
vt 0.703664 0.790977
vt 0.702682 0.790977
vt 0.702682 0.766165
vt 0.780710 0.730827
vt 0.780710 0.755639
vt 0.779728 0.755639
vt 0.779728 0.730827
vt 0.671271 0.751880
vt 0.646459 0.751880
vt 0.646459 0.375940
vt 0.671271 0.375940
vt 0.779728 0.755639
vt 0.779728 0.780451
vt 0.778746 0.780451
vt 0.778746 0.755639
vt 0.696083 0.751881
vt 0.671271 0.751881
vt 0.671271 0.375940
vt 0.696083 0.375940
vt 0.836728 0.000000
vt 0.836728 0.375940
vt 0.835746 0.375940
vt 0.835746 0.000000
vt 0.836728 0.375940
vt 0.836728 0.751880
vt 0.835746 0.751880
vt 0.835746 0.375940
vt 0.780710 0.755638
vt 0.780710 0.780449
vt 0.779728 0.780449
vt 0.779728 0.755638
vt 0.782028 0.365414
vt 0.757217 0.365414
vt 0.757217 0.000000
vt 0.782028 0.000000
vt 0.781692 0.730827
vt 0.781692 0.755638
vt 0.780710 0.755638
vt 0.780710 0.730827
vt 0.782028 0.730827
vt 0.757217 0.730827
vt 0.757217 0.365414
vt 0.782028 0.365414
vt 0.839674 0.365414
vt 0.839674 0.730827
vt 0.838692 0.730827
vt 0.838692 0.365414
vt 0.839674 0.000000
vt 0.839674 0.365414
vt 0.838692 0.365414
vt 0.838692 0.000000
vt 0.833783 0.000000
vt 0.833783 0.945113
vt 0.832801 0.945113
vt 0.832801 0.000000
vt 0.533764 0.000000
vt 0.533764 0.945113
vt 0.508951 0.945113
vt 0.508951 0.000000
vt 0.832801 0.000000
vt 0.832801 0.945113
vt 0.831819 0.945113
vt 0.831819 0.000000
vt 0.508951 0.000000
vt 0.508951 0.945113
vt 0.484138 0.945113
vt 0.484138 0.000000
vt 0.706609 0.771429
vt 0.706609 0.796242
vt 0.705627 0.796242
vt 0.705627 0.771429
vt 0.705627 0.771429
vt 0.705627 0.796242
vt 0.704646 0.796242
vt 0.704646 0.771429
vt 0.835746 0.000000
vt 0.835746 0.945113
vt 0.834765 0.945113
vt 0.834765 0.000000
vt 0.558575 0.000000
vt 0.558575 0.945113
vt 0.533763 0.945113
vt 0.533763 0.000000
vt 0.834765 0.000000
vt 0.834765 0.945113
vt 0.833783 0.945113
vt 0.833783 0.000000
vt 0.583387 0.000000
vt 0.583387 0.945113
vt 0.558575 0.945113
vt 0.558575 0.000000
vt 0.798777 0.657373
vt 0.798777 0.682185
vt 0.797795 0.682185
vt 0.797795 0.657373
vt 0.798777 0.682185
vt 0.798777 0.706997
vt 0.797795 0.706997
vt 0.797795 0.682185
vt 0.704646 0.741353
vt 0.704646 0.766165
vt 0.703664 0.766165
vt 0.703664 0.741353
vt 0.757215 0.730827
vt 0.732403 0.730827
vt 0.732403 0.365414
vt 0.757215 0.365414
vt 0.703664 0.741353
vt 0.703664 0.766165
vt 0.702682 0.766165
vt 0.702682 0.741353
vt 0.757215 0.365414
vt 0.732403 0.365414
vt 0.732403 0.000000
vt 0.757215 0.000000
vt 0.838692 0.000000
vt 0.838692 0.365414
vt 0.837710 0.365414
vt 0.837710 0.000000
vt 0.838692 0.365414
vt 0.838692 0.730827
vt 0.837710 0.730827
vt 0.837710 0.365414
vt 0.803062 0.657373
vt 0.797798 0.657373
vt 0.797798 0.631579
vt 0.803062 0.631579
vt 0.701347 0.741353
vt 0.696083 0.741353
vt 0.696083 0.375940
vt 0.701347 0.375940
vt 0.701347 0.792941
vt 0.696083 0.792941
vt 0.696083 0.767147
vt 0.701347 0.767147
vt 0.706612 0.741354
vt 0.701347 0.741354
vt 0.701347 0.375940
vt 0.706612 0.375940
vt 0.732403 0.365414
vt 0.732403 0.730827
vt 0.706609 0.730827
vt 0.706609 0.365414
vt 0.732403 0.000000
vt 0.732403 0.365414
vt 0.706609 0.365414
vt 0.706609 0.000000
vt 0.359096 0.000000
vt 0.359096 1.000000
vt 0.333302 1.000000
vt 0.333302 0.000000
vt 0.822629 0.000000
vt 0.822629 1.000000
vt 0.817365 1.000000
vt 0.817366 0.000000
vt 0.384890 0.000000
vt 0.384890 1.000000
vt 0.359096 1.000000
vt 0.359096 0.000000
vt 0.827892 0.000000
vt 0.827892 1.000000
vt 0.822629 1.000000
vt 0.822629 0.000000
vt 0.768220 0.730827
vt 0.773483 0.730827
vt 0.773483 0.756621
vt 0.768220 0.756621
vt 0.773483 0.730827
vt 0.778746 0.730827
vt 0.778746 0.756621
vt 0.773483 0.756621
vt 0.307508 0.000000
vt 0.307508 1.000000
vt 0.281715 1.000000
vt 0.281715 0.000000
vt 0.812101 0.000000
vt 0.812101 1.000000
vt 0.806839 1.000000
vt 0.806839 0.000000
vt 0.333302 0.000000
vt 0.333302 1.000000
vt 0.307508 1.000000
vt 0.307508 0.000000
vt 0.817364 0.000000
vt 0.817364 1.000000
vt 0.812101 1.000000
vt 0.812101 0.000000
vt 0.696083 0.741353
vt 0.701345 0.741353
vt 0.701345 0.767147
vt 0.696083 0.767147
vt 0.762957 0.730827
vt 0.768219 0.730827
vt 0.768219 0.756621
vt 0.762957 0.756621
vt 0.646459 0.000000
vt 0.646459 0.902256
vt 0.630691 0.902256
vt 0.630691 0.000000
vt 0.281715 0.000000
vt 0.281715 0.902255
vt 0.211287 0.902255
vt 0.211287 0.000000
vt 0.614923 0.000000
vt 0.614923 0.902256
vt 0.599155 0.902256
vt 0.599155 0.000000
vt 0.211287 0.000000
vt 0.211287 0.902256
vt 0.140858 0.902256
vt 0.140858 0.000000
vt 0.722377 0.730827
vt 0.722377 0.801256
vt 0.706609 0.801256
vt 0.706609 0.730827
vt 0.738145 0.730827
vt 0.738145 0.801256
vt 0.722377 0.801256
vt 0.722377 0.730827
vt 0.630691 0.000000
vt 0.630691 0.902256
vt 0.614923 0.902256
vt 0.614923 0.000000
vt 0.140857 0.000000
vt 0.140857 0.902256
vt 0.070429 0.902256
vt 0.070429 0.000000
vt 0.599155 0.000000
vt 0.599155 0.902256
vt 0.583387 0.902256
vt 0.583387 0.000000
vt 0.070429 0.000000
vt 0.070428 0.902256
vt 0.000000 0.902256
vt 0.000000 0.000000
vt 0.797795 0.702007
vt 0.797795 0.772436
vt 0.782027 0.772436
vt 0.782027 0.702007
vt 0.797795 0.631579
vt 0.797795 0.702007
vt 0.782027 0.702007
vt 0.782027 0.631579
vn -1.0000 0.0000 0.0000
vn 0.0000 0.0000 -1.0000
vn 1.0000 0.0000 0.0000
vn 0.0000 0.0000 1.0000
vn 0.0000 -1.0000 0.0000
vn 0.0000 1.0000 0.0000
usemtl Material.001
s off
f 1/1/1 2/2/1 4/3/1 3/4/1
f 3/5/2 4/6/2 8/7/2 7/8/2
f 7/9/3 8/10/3 6/11/3 5/12/3
f 5/13/4 6/14/4 2/15/4 1/16/4
f 3/17/5 7/8/5 5/13/5 1/16/5
f 8/7/6 4/6/6 2/18/6 6/14/6
f 9/19/1 10/20/1 12/21/1 11/22/1
f 11/23/2 12/24/2 16/25/2 15/26/2
f 15/27/3 16/28/3 14/29/3 13/30/3
f 13/31/4 14/32/4 10/33/4 9/34/4
f 11/35/5 15/36/5 13/37/5 9/38/5
f 16/39/6 12/40/6 10/41/6 14/42/6
f 17/43/1 18/44/1 20/45/1 19/46/1
f 19/47/2 20/48/2 24/49/2 23/50/2
f 23/51/3 24/52/3 22/53/3 21/54/3
f 21/55/4 22/56/4 18/57/4 17/58/4
f 19/59/5 23/60/5 21/61/5 17/62/5
f 24/63/6 20/64/6 18/65/6 22/66/6
f 25/67/1 26/68/1 28/69/1 27/70/1
f 27/71/2 28/72/2 32/73/2 31/74/2
f 31/75/3 32/76/3 30/77/3 29/78/3
f 29/79/4 30/80/4 26/81/4 25/82/4
f 27/83/5 31/84/5 29/85/5 25/86/5
f 32/87/6 28/88/6 26/89/6 30/90/6
f 33/91/1 34/92/1 36/93/1 35/94/1
f 35/95/2 36/96/2 40/97/2 39/98/2
f 39/99/3 40/100/3 38/101/3 37/102/3
f 37/103/4 38/104/4 34/105/4 33/106/4
f 35/107/5 39/108/5 37/109/5 33/110/5
f 40/111/6 36/112/6 34/113/6 38/114/6
f 41/115/1 42/116/1 44/117/1 43/118/1
f 43/119/2 44/120/2 48/121/2 47/122/2
f 47/123/3 48/124/3 46/125/3 45/126/3
f 45/127/4 46/128/4 42/129/4 41/130/4
f 43/131/5 47/132/5 45/133/5 41/134/5
f 48/135/6 44/136/6 42/137/6 46/138/6
f 49/139/1 50/140/1 52/141/1 51/142/1
f 51/143/2 52/144/2 56/145/2 55/146/2
f 55/147/3 56/148/3 54/149/3 53/150/3
f 53/151/4 54/152/4 50/153/4 49/154/4
f 51/155/5 55/156/5 53/157/5 49/158/5
f 56/159/6 52/160/6 50/161/6 54/162/6
f 57/163/1 58/164/1 60/165/1 59/166/1
f 59/167/2 60/168/2 64/169/2 63/170/2
f 63/171/3 64/172/3 62/173/3 61/174/3
f 61/175/4 62/176/4 58/177/4 57/178/4
f 59/179/5 63/180/5 61/181/5 57/182/5
f 64/183/6 60/184/6 58/185/6 62/186/6
f 65/187/1 66/188/1 68/189/1 67/190/1
f 67/191/2 68/192/2 72/193/2 71/194/2
f 71/195/3 72/196/3 70/197/3 69/198/3
f 69/199/4 70/200/4 66/201/4 65/202/4
f 67/203/5 71/204/5 69/205/5 65/206/5
f 72/207/6 68/208/6 66/209/6 70/210/6
f 73/211/1 74/212/1 76/213/1 75/214/1
f 75/215/2 76/216/2 80/217/2 79/218/2
f 79/219/3 80/220/3 78/221/3 77/222/3
f 77/223/4 78/224/4 74/225/4 73/226/4
f 75/227/5 79/228/5 77/229/5 73/230/5
f 80/231/6 76/232/6 74/233/6 78/234/6
f 81/235/1 82/236/1 84/237/1 83/238/1
f 83/239/2 84/240/2 88/241/2 87/242/2
f 87/243/3 88/244/3 86/245/3 85/246/3
f 85/247/4 86/248/4 82/249/4 81/250/4
f 83/251/5 87/252/5 85/253/5 81/254/5
f 88/255/6 84/256/6 82/257/6 86/258/6
f 89/259/1 90/260/1 92/261/1 91/262/1
f 91/263/2 92/264/2 96/265/2 95/266/2
f 95/267/3 96/268/3 94/269/3 93/270/3
f 93/271/4 94/272/4 90/273/4 89/274/4
f 91/275/5 95/276/5 93/277/5 89/278/5
f 96/279/6 92/280/6 90/281/6 94/282/6
f 97/283/1 98/284/1 100/285/1 99/286/1
f 99/287/2 100/288/2 104/289/2 103/290/2
f 103/291/3 104/292/3 102/293/3 101/294/3
f 101/295/4 102/296/4 98/297/4 97/298/4
f 99/299/5 103/300/5 101/301/5 97/302/5
f 104/303/6 100/304/6 98/305/6 102/306/6
f 105/307/1 106/308/1 108/309/1 107/310/1
f 107/311/2 108/312/2 112/313/2 111/314/2
f 111/315/3 112/316/3 110/317/3 109/318/3
f 109/319/4 110/320/4 106/321/4 105/322/4
f 107/323/5 111/324/5 109/325/5 105/326/5
f 112/327/6 108/328/6 106/329/6 110/330/6
f 113/331/1 114/332/1 116/333/1 115/334/1
f 115/335/2 116/336/2 120/337/2 119/338/2
f 119/339/3 120/340/3 118/341/3 117/342/3
f 117/343/4 118/344/4 114/345/4 113/346/4
f 115/347/5 119/348/5 117/349/5 113/350/5
f 120/351/6 116/352/6 114/353/6 118/354/6
f 121/355/1 122/356/1 124/357/1 123/358/1
f 123/359/2 124/360/2 128/361/2 127/362/2
f 127/363/3 128/364/3 126/365/3 125/366/3
f 125/367/4 126/368/4 122/369/4 121/370/4
f 123/371/5 127/372/5 125/373/5 121/374/5
f 128/375/6 124/376/6 122/377/6 126/378/6
