# Blender v2.93.1 OBJ File: 'cosma7_door.blend'
# www.blender.org
mtllib cosma7_door.mtl
o Cube
v 0.001841 0.025855 1.931559
v 0.001841 2.655240 1.931559
v 0.001841 0.025855 1.799431
v 0.001841 2.655240 1.799431
v 0.999030 0.025855 1.931559
v 0.999030 2.655240 1.931559
v 0.999030 0.025855 1.799431
v 0.999030 2.655240 1.799431
vt 0.765668 0.763715
vt 0.988238 0.763715
vt 0.988238 0.986285
vt 0.765668 0.986285
vt 0.695078 0.533328
vt 0.695078 0.986203
vt 0.511953 0.986203
vt 0.511953 0.533328
vt 0.756535 0.764348
vt 0.977840 0.764348
vt 0.977840 0.985652
vt 0.756535 0.985652
vt 0.767899 0.773758
vt 0.970383 0.773758
vt 0.970383 0.976242
vt 0.767899 0.976242
vt 0.762332 0.762332
vt 0.975949 0.762332
vt 0.975949 0.975949
vt 0.762332 0.975949
vt 0.762996 0.762996
vt 0.979192 0.762996
vt 0.979192 0.979192
vt 0.762996 0.979192
vn -1.0000 0.0000 0.0000
vn 0.0000 0.0000 -1.0000
vn 1.0000 0.0000 0.0000
vn 0.0000 0.0000 1.0000
vn 0.0000 -1.0000 0.0000
vn 0.0000 1.0000 0.0000
usemtl Material.001
s off
f 1/1/1 2/2/1 4/3/1 3/4/1
f 3/5/2 4/6/2 8/7/2 7/8/2
f 7/9/3 8/10/3 6/11/3 5/12/3
f 5/13/4 6/14/4 2/15/4 1/16/4
f 3/17/5 7/18/5 5/19/5 1/20/5
f 8/21/6 4/22/6 2/23/6 6/24/6
o Cube.001
v 0.391566 0.025855 2.105102
v 0.391566 2.655240 2.105102
v 0.270000 0.025855 2.000572
v 0.270000 2.655240 2.000572
v 0.608434 0.025855 2.105102
v 0.608434 2.655240 2.105102
v 0.730000 0.025855 2.000572
v 0.730000 2.655240 2.000572
vt 0.485444 0.001697
vt 0.485444 0.748303
vt 0.260650 0.748303
vt 0.260650 0.001697
vt 0.273036 0.780848
vt 0.469152 0.780848
vt 0.469152 0.976964
vt 0.273036 0.976964
vt 0.484199 0.005749
vt 0.484199 0.744251
vt 0.257988 0.744251
vt 0.257988 0.005749
vt 0.257264 0.761170
vt 0.484924 0.761170
vt 0.484924 0.988830
vt 0.257264 0.988830
vt 0.762622 0.760669
vt 0.987378 0.760669
vt 0.987378 0.985425
vt 0.762622 0.985425
vt 0.770927 0.767020
vt 0.982980 0.767020
vt 0.982980 0.979073
vt 0.770927 0.979073
vn -0.6520 0.0000 0.7582
vn 0.0000 0.0000 -1.0000
vn 0.6520 0.0000 0.7582
vn 0.0000 0.0000 1.0000
vn 0.0000 -1.0000 0.0000
vn 0.0000 1.0000 0.0000
usemtl Material.001
s off
f 9/25/7 10/26/7 12/27/7 11/28/7
f 11/29/8 12/30/8 16/31/8 15/32/8
f 15/33/9 16/34/9 14/35/9 13/36/9
f 13/37/10 14/38/10 10/39/10 9/40/10
f 11/41/11 15/42/11 13/43/11 9/44/11
f 16/45/12 12/46/12 10/47/12 14/48/12
o Cube.002
v 0.390443 0.025855 2.132665
v 0.390443 2.655240 2.132665
v 0.390443 0.025855 2.102665
v 0.390443 2.655240 2.102665
v 0.609557 0.025855 2.132665
v 0.609557 2.655240 2.132665
v 0.609557 0.025855 2.102665
v 0.609557 2.655240 2.102665
vt 0.011902 0.015808
vt 0.238098 0.015808
vt 0.238098 0.242005
vt 0.011902 0.242005
vt 0.013400 0.025119
vt 0.220975 0.025119
vt 0.220975 0.232694
vt 0.013400 0.232694
vt 0.022361 0.026267
vt 0.219827 0.026267
vt 0.219827 0.223733
vt 0.022361 0.223733
vt 0.252817 0.005454
vt 0.252817 0.994546
vt 0.004995 0.994547
vt 0.004995 0.005454
vt 0.019983 0.019983
vt 0.222205 0.019983
vt 0.222205 0.222205
vt 0.019983 0.222205
vt 0.024900 0.028806
vt 0.232913 0.028806
vt 0.232913 0.236819
vt 0.024900 0.236819
vn -1.0000 0.0000 0.0000
vn 0.0000 0.0000 -1.0000
vn 1.0000 0.0000 0.0000
vn 0.0000 0.0000 1.0000
vn 0.0000 -1.0000 0.0000
vn 0.0000 1.0000 0.0000
usemtl Material.001
s off
f 17/49/13 18/50/13 20/51/13 19/52/13
f 19/53/14 20/54/14 24/55/14 23/56/14
f 23/57/15 24/58/15 22/59/15 21/60/15
f 21/61/16 22/62/16 18/63/16 17/64/16
f 19/65/17 23/66/17 21/67/17 17/68/17
f 24/69/18 20/70/18 18/71/18 22/72/18
o Cube.004
v 0.270000 0.025855 1.999874
v 0.270000 2.655240 1.999874
v 0.270000 0.025855 1.933209
v 0.270000 2.655240 1.933209
v 0.730000 0.025855 1.999874
v 0.730000 2.655240 1.999874
v 0.730000 0.025855 1.933209
v 0.730000 2.655240 1.933209
vt 0.416231 0.008878
vt 0.416231 0.748935
vt 0.325956 0.748935
vt 0.325956 0.008878
vt 0.679688 0.699219
vt 0.929688 0.699219
vt 0.929688 0.949219
vt 0.679688 0.949219
vt 0.412438 0.007433
vt 0.412438 0.742567
vt 0.321937 0.742567
vt 0.321937 0.007433
vt 0.278476 0.782382
vt 0.471524 0.782382
vt 0.471524 0.975431
vt 0.278476 0.975431
vt 0.778511 0.772651
vt 0.975395 0.772651
vt 0.975395 0.969536
vt 0.778511 0.969536
vt 0.764584 0.768490
vt 0.977604 0.768490
vt 0.977604 0.981510
vt 0.764584 0.981510
vn -1.0000 0.0000 0.0000
vn 0.0000 0.0000 -1.0000
vn 1.0000 0.0000 0.0000
vn 0.0000 0.0000 1.0000
vn 0.0000 -1.0000 0.0000
vn 0.0000 1.0000 0.0000
usemtl Material.001
s off
f 25/73/19 26/74/19 28/75/19 27/76/19
f 27/77/20 28/78/20 32/79/20 31/80/20
f 31/81/21 32/82/21 30/83/21 29/84/21
f 29/85/22 30/86/22 26/87/22 25/88/22
f 27/89/23 31/90/23 29/91/23 25/92/23
f 32/93/24 28/94/24 26/95/24 30/96/24
o Cylinder
v 0.500000 1.171880 2.066539
v 0.500000 1.171880 1.901133
v 0.557402 1.160461 2.066539
v 0.557402 1.160461 1.901133
v 0.606066 1.127946 2.066539
v 0.606066 1.127946 1.901133
v 0.638582 1.079282 2.066539
v 0.638582 1.079282 1.901133
v 0.650000 1.021880 2.066539
v 0.650000 1.021880 1.901133
v 0.638582 0.964477 2.066539
v 0.638582 0.964477 1.901133
v 0.606066 0.915814 2.066539
v 0.606066 0.915814 1.901133
v 0.557403 0.883298 2.066539
v 0.557403 0.883298 1.901133
v 0.500000 0.871880 2.066539
v 0.500000 0.871880 1.901133
v 0.442597 0.883298 2.066539
v 0.442597 0.883298 1.901133
v 0.393934 0.915814 2.066539
v 0.393934 0.915814 1.901133
v 0.361418 0.964477 2.066539
v 0.361418 0.964477 1.901133
v 0.350000 1.021880 2.066539
v 0.350000 1.021880 1.901133
v 0.361418 1.079282 2.066539
v 0.361418 1.079282 1.901133
v 0.393934 1.127946 2.066539
v 0.393934 1.127946 1.901133
v 0.442597 1.160462 2.066539
v 0.442597 1.160462 1.901133
vt 0.861214 0.333257
vt 0.861214 0.174555
vt 0.841376 0.174555
vt 0.841376 0.333257
vt 0.821539 0.174555
vt 0.821539 0.333257
vt 0.801701 0.174555
vt 0.801701 0.333257
vt 0.781863 0.174555
vt 0.781863 0.333257
vt 0.762025 0.174555
vt 0.762025 0.333257
vt 0.742187 0.174555
vt 0.742187 0.333257
vt 0.722350 0.174555
vt 0.722350 0.333257
vt 0.702512 0.174555
vt 0.702512 0.333257
vt 0.682674 0.174555
vt 0.682674 0.333257
vt 0.662836 0.174555
vt 0.662836 0.333257
vt 0.642999 0.174555
vt 0.642999 0.333257
vt 0.623161 0.174555
vt 0.623161 0.333257
vt 0.603323 0.174555
vt 0.603323 0.333257
vt 0.583485 0.174555
vt 0.583485 0.333257
vt 0.753906 0.486094
vt 0.845750 0.467825
vt 0.923612 0.415799
vt 0.975637 0.337938
vt 0.993906 0.246094
vt 0.975637 0.154250
vt 0.923612 0.076388
vt 0.845750 0.024363
vt 0.753906 0.006094
vt 0.662062 0.024363
vt 0.584201 0.076388
vt 0.532175 0.154250
vt 0.513906 0.246094
vt 0.532175 0.337938
vt 0.584201 0.415799
vt 0.662062 0.467825
vt 0.900890 0.333257
vt 0.900890 0.174555
vt 0.881052 0.174555
vt 0.881052 0.333257
vt 0.750000 0.490000
vt 0.658156 0.471731
vt 0.580294 0.419706
vt 0.528269 0.341844
vt 0.510000 0.250000
vt 0.528269 0.158156
vt 0.580294 0.080294
vt 0.658156 0.028269
vt 0.750000 0.010000
vt 0.841844 0.028269
vt 0.919706 0.080294
vt 0.971731 0.158156
vt 0.990000 0.250000
vt 0.971731 0.341844
vt 0.919706 0.419706
vt 0.841844 0.471731
vn 0.8315 0.5556 0.0000
vn 0.9808 0.1951 0.0000
vn 0.9808 -0.1951 0.0000
vn 0.8315 -0.5556 0.0000
vn 0.5556 -0.8315 0.0000
vn 0.1951 -0.9808 0.0000
vn -0.1951 -0.9808 0.0000
vn -0.5556 -0.8315 0.0000
vn -0.8315 -0.5556 0.0000
vn -0.9808 -0.1951 0.0000
vn -0.9808 0.1951 0.0000
vn -0.8315 0.5556 0.0000
vn -0.5556 0.8315 0.0000
vn -0.1951 0.9808 0.0000
vn 0.0000 0.0000 -1.0000
vn 0.1951 0.9808 0.0000
vn -0.0000 0.0000 1.0000
vn 0.5556 0.8315 0.0000
usemtl Material.001
s off
f 38/97/25 37/98/25 39/99/25 40/100/25
f 40/100/26 39/99/26 41/101/26 42/102/26
f 42/102/27 41/101/27 43/103/27 44/104/27
f 44/104/28 43/103/28 45/105/28 46/106/28
f 46/106/29 45/105/29 47/107/29 48/108/29
f 48/108/30 47/107/30 49/109/30 50/110/30
f 50/110/31 49/109/31 51/111/31 52/112/31
f 52/112/32 51/111/32 53/113/32 54/114/32
f 54/114/33 53/113/33 55/115/33 56/116/33
f 56/116/34 55/115/34 57/117/34 58/118/34
f 58/118/35 57/117/35 59/119/35 60/120/35
f 60/120/36 59/119/36 61/121/36 62/122/36
f 62/122/37 61/121/37 63/123/37 64/124/37
f 64/124/38 63/123/38 33/125/38 34/126/38
f 34/127/39 36/128/39 38/129/39 40/130/39 42/131/39 44/132/39 46/133/39 48/134/39 50/135/39 52/136/39 54/137/39 56/138/39 58/139/39 60/140/39 62/141/39 64/142/39
f 34/143/40 33/144/40 35/145/40 36/146/40
f 33/147/41 63/148/41 61/149/41 59/150/41 57/151/41 55/152/41 53/153/41 51/154/41 49/155/41 47/156/41 45/157/41 43/158/41 41/159/41 39/160/41 37/161/41 35/162/41
f 36/146/42 35/145/42 37/98/42 38/97/42
o Cylinder.001
v 0.500000 2.365376 2.066539
v 0.500000 2.365376 1.901133
v 0.557402 2.353958 2.066539
v 0.557402 2.353958 1.901133
v 0.606066 2.321442 2.066539
v 0.606066 2.321442 1.901133
v 0.638582 2.272779 2.066539
v 0.638582 2.272779 1.901133
v 0.650000 2.215376 2.066539
v 0.650000 2.215376 1.901133
v 0.638582 2.157974 2.066539
v 0.638582 2.157974 1.901133
v 0.606066 2.109310 2.066539
v 0.606066 2.109310 1.901133
v 0.557403 2.076794 2.066539
v 0.557403 2.076794 1.901133
v 0.500000 2.065376 2.066539
v 0.500000 2.065376 1.901133
v 0.442597 2.076794 2.066539
v 0.442597 2.076794 1.901133
v 0.393934 2.109310 2.066539
v 0.393934 2.109310 1.901133
v 0.361418 2.157974 2.066539
v 0.361418 2.157974 1.901133
v 0.350000 2.215376 2.066539
v 0.350000 2.215376 1.901133
v 0.361418 2.272779 2.066539
v 0.361418 2.272779 1.901133
v 0.393934 2.321442 2.066539
v 0.393934 2.321442 1.901133
v 0.442597 2.353958 2.066539
v 0.442597 2.353958 1.901133
vt 0.882531 0.334448
vt 0.882531 0.157740
vt 0.860442 0.157740
vt 0.860442 0.334448
vt 0.838354 0.157740
vt 0.838354 0.334448
vt 0.816265 0.157740
vt 0.816265 0.334448
vt 0.794177 0.157740
vt 0.794177 0.334448
vt 0.772088 0.157740
vt 0.772088 0.334448
vt 0.750000 0.157740
vt 0.750000 0.334448
vt 0.727911 0.157740
vt 0.727911 0.334448
vt 0.705823 0.157740
vt 0.705823 0.334448
vt 0.683735 0.157740
vt 0.683735 0.334448
vt 0.661646 0.157740
vt 0.661646 0.334448
vt 0.639558 0.157740
vt 0.639558 0.334448
vt 0.617469 0.157740
vt 0.617469 0.334448
vt 0.595381 0.157740
vt 0.595381 0.334448
vt 0.573292 0.157740
vt 0.573292 0.334448
vt 0.750000 0.490000
vt 0.841844 0.471731
vt 0.919706 0.419706
vt 0.971731 0.341844
vt 0.990000 0.250000
vt 0.971731 0.158156
vt 0.919706 0.080294
vt 0.841844 0.028269
vt 0.750000 0.010000
vt 0.658156 0.028269
vt 0.580294 0.080294
vt 0.528269 0.158156
vt 0.510000 0.250000
vt 0.528269 0.341844
vt 0.580294 0.419706
vt 0.658156 0.471731
vt 0.926708 0.334448
vt 0.926708 0.157740
vt 0.904619 0.157740
vt 0.904619 0.334448
vt 0.750000 0.490000
vt 0.658156 0.471731
vt 0.580294 0.419706
vt 0.528269 0.341844
vt 0.510000 0.250000
vt 0.528269 0.158156
vt 0.580294 0.080294
vt 0.658156 0.028269
vt 0.750000 0.010000
vt 0.841844 0.028269
vt 0.919706 0.080294
vt 0.971731 0.158156
vt 0.990000 0.250000
vt 0.971731 0.341844
vt 0.919706 0.419706
vt 0.841844 0.471731
vn 0.8315 0.5556 0.0000
vn 0.9808 0.1951 0.0000
vn 0.9808 -0.1951 0.0000
vn 0.8315 -0.5556 0.0000
vn 0.5556 -0.8315 0.0000
vn 0.1951 -0.9808 0.0000
vn -0.1951 -0.9808 0.0000
vn -0.5556 -0.8315 0.0000
vn -0.8315 -0.5556 0.0000
vn -0.9808 -0.1951 0.0000
vn -0.9808 0.1951 0.0000
vn -0.8315 0.5556 0.0000
vn -0.5556 0.8315 0.0000
vn -0.1951 0.9808 0.0000
vn -0.0000 0.0000 -1.0000
vn 0.1951 0.9808 0.0000
vn 0.0000 0.0000 1.0000
vn 0.5556 0.8315 0.0000
usemtl Material.001
s off
f 70/163/43 69/164/43 71/165/43 72/166/43
f 72/166/44 71/165/44 73/167/44 74/168/44
f 74/168/45 73/167/45 75/169/45 76/170/45
f 76/170/46 75/169/46 77/171/46 78/172/46
f 78/172/47 77/171/47 79/173/47 80/174/47
f 80/174/48 79/173/48 81/175/48 82/176/48
f 82/176/49 81/175/49 83/177/49 84/178/49
f 84/178/50 83/177/50 85/179/50 86/180/50
f 86/180/51 85/179/51 87/181/51 88/182/51
f 88/182/52 87/181/52 89/183/52 90/184/52
f 90/184/53 89/183/53 91/185/53 92/186/53
f 92/186/54 91/185/54 93/187/54 94/188/54
f 94/188/55 93/187/55 95/189/55 96/190/55
f 96/190/56 95/189/56 65/191/56 66/192/56
f 66/193/57 68/194/57 70/195/57 72/196/57 74/197/57 76/198/57 78/199/57 80/200/57 82/201/57 84/202/57 86/203/57 88/204/57 90/205/57 92/206/57 94/207/57 96/208/57
f 66/209/58 65/210/58 67/211/58 68/212/58
f 65/213/59 95/214/59 93/215/59 91/216/59 89/217/59 87/218/59 85/219/59 83/220/59 81/221/59 79/222/59 77/223/59 75/224/59 73/225/59 71/226/59 69/227/59 67/228/59
f 68/212/60 67/211/60 69/164/60 70/163/60
o Cylinder.002
v 0.500000 1.781697 2.066539
v 0.500000 1.781697 1.901133
v 0.557402 1.770278 2.066539
v 0.557402 1.770278 1.901133
v 0.606066 1.737763 2.066539
v 0.606066 1.737763 1.901133
v 0.638582 1.689099 2.066539
v 0.638582 1.689099 1.901133
v 0.650000 1.631697 2.066539
v 0.650000 1.631697 1.901133
v 0.638582 1.574294 2.066539
v 0.638582 1.574294 1.901133
v 0.606066 1.525631 2.066539
v 0.606066 1.525631 1.901133
v 0.557403 1.493115 2.066539
v 0.557403 1.493115 1.901133
v 0.500000 1.481697 2.066539
v 0.500000 1.481697 1.901133
v 0.442597 1.493115 2.066539
v 0.442597 1.493115 1.901133
v 0.393934 1.525631 2.066539
v 0.393934 1.525631 1.901133
v 0.361418 1.574294 2.066539
v 0.361418 1.574294 1.901133
v 0.350000 1.631697 2.066539
v 0.350000 1.631697 1.901133
v 0.361418 1.689099 2.066539
v 0.361418 1.689099 1.901133
v 0.393934 1.737763 2.066539
v 0.393934 1.737763 1.901133
v 0.442597 1.770279 2.066539
v 0.442597 1.770279 1.901133
vt 0.873302 0.336107
vt 0.873302 0.171705
vt 0.852751 0.171705
vt 0.852751 0.336107
vt 0.832201 0.171705
vt 0.832201 0.336107
vt 0.811651 0.171705
vt 0.811651 0.336107
vt 0.791101 0.171705
vt 0.791101 0.336107
vt 0.770550 0.171705
vt 0.770550 0.336107
vt 0.750000 0.171705
vt 0.750000 0.336107
vt 0.729450 0.171705
vt 0.729450 0.336107
vt 0.708899 0.171705
vt 0.708899 0.336107
vt 0.688349 0.171705
vt 0.688349 0.336107
vt 0.667799 0.171705
vt 0.667799 0.336107
vt 0.647249 0.171705
vt 0.647249 0.336107
vt 0.626698 0.171705
vt 0.626698 0.336107
vt 0.606148 0.171705
vt 0.606148 0.336107
vt 0.585598 0.171705
vt 0.585598 0.336107
vt 0.753906 0.490000
vt 0.845750 0.471731
vt 0.923612 0.419706
vt 0.975637 0.341844
vt 0.993906 0.250000
vt 0.975637 0.158156
vt 0.923612 0.080294
vt 0.845750 0.028269
vt 0.753906 0.010000
vt 0.662062 0.028269
vt 0.584201 0.080294
vt 0.532175 0.158156
vt 0.513906 0.250000
vt 0.532175 0.341844
vt 0.584201 0.419706
vt 0.662062 0.471731
vt 0.914402 0.336107
vt 0.914402 0.171705
vt 0.893852 0.171705
vt 0.893852 0.336107
vt 0.750000 0.490000
vt 0.658156 0.471731
vt 0.580294 0.419706
vt 0.528269 0.341844
vt 0.510000 0.250000
vt 0.528269 0.158156
vt 0.580294 0.080294
vt 0.658156 0.028269
vt 0.750000 0.010000
vt 0.841844 0.028269
vt 0.919706 0.080294
vt 0.971731 0.158156
vt 0.990000 0.250000
vt 0.971731 0.341844
vt 0.919706 0.419706
vt 0.841844 0.471731
vn 0.8315 0.5556 0.0000
vn 0.9808 0.1951 0.0000
vn 0.9808 -0.1951 0.0000
vn 0.8315 -0.5556 0.0000
vn 0.5556 -0.8315 0.0000
vn 0.1951 -0.9808 0.0000
vn -0.1951 -0.9808 0.0000
vn -0.5556 -0.8315 0.0000
vn -0.8315 -0.5556 0.0000
vn -0.9808 -0.1951 0.0000
vn -0.9808 0.1951 0.0000
vn -0.8315 0.5556 0.0000
vn -0.5556 0.8315 0.0000
vn -0.1951 0.9808 0.0000
vn 0.0000 0.0000 -1.0000
vn 0.1951 0.9808 0.0000
vn 0.0000 0.0000 1.0000
vn 0.5556 0.8315 0.0000
usemtl Material.001
s off
f 102/229/61 101/230/61 103/231/61 104/232/61
f 104/232/62 103/231/62 105/233/62 106/234/62
f 106/234/63 105/233/63 107/235/63 108/236/63
f 108/236/64 107/235/64 109/237/64 110/238/64
f 110/238/65 109/237/65 111/239/65 112/240/65
f 112/240/66 111/239/66 113/241/66 114/242/66
f 114/242/67 113/241/67 115/243/67 116/244/67
f 116/244/68 115/243/68 117/245/68 118/246/68
f 118/246/69 117/245/69 119/247/69 120/248/69
f 120/248/70 119/247/70 121/249/70 122/250/70
f 122/250/71 121/249/71 123/251/71 124/252/71
f 124/252/72 123/251/72 125/253/72 126/254/72
f 126/254/73 125/253/73 127/255/73 128/256/73
f 128/256/74 127/255/74 97/257/74 98/258/74
f 98/259/75 100/260/75 102/261/75 104/262/75 106/263/75 108/264/75 110/265/75 112/266/75 114/267/75 116/268/75 118/269/75 120/270/75 122/271/75 124/272/75 126/273/75 128/274/75
f 98/275/76 97/276/76 99/277/76 100/278/76
f 97/279/77 127/280/77 125/281/77 123/282/77 121/283/77 119/284/77 117/285/77 115/286/77 113/287/77 111/288/77 109/289/77 107/290/77 105/291/77 103/292/77 101/293/77 99/294/77
f 100/278/78 99/277/78 101/230/78 102/229/78
o Cylinder.003
v 0.500000 0.609997 2.066539
v 0.500000 0.609997 1.901133
v 0.557402 0.598579 2.066539
v 0.557402 0.598579 1.901133
v 0.606066 0.566063 2.066539
v 0.606066 0.566063 1.901133
v 0.638582 0.517399 2.066539
v 0.638582 0.517399 1.901133
v 0.650000 0.459997 2.066539
v 0.650000 0.459997 1.901133
v 0.638582 0.402594 2.066539
v 0.638582 0.402594 1.901133
v 0.606066 0.353931 2.066539
v 0.606066 0.353931 1.901133
v 0.557403 0.321415 2.066539
v 0.557403 0.321415 1.901133
v 0.500000 0.309997 2.066539
v 0.500000 0.309997 1.901133
v 0.442597 0.321415 2.066539
v 0.442597 0.321415 1.901133
v 0.393934 0.353931 2.066539
v 0.393934 0.353931 1.901133
v 0.361418 0.402594 2.066539
v 0.361418 0.402594 1.901133
v 0.350000 0.459997 2.066539
v 0.350000 0.459997 1.901133
v 0.361418 0.517399 2.066539
v 0.361418 0.517399 1.901133
v 0.393934 0.566063 2.066539
v 0.393934 0.566063 1.901133
v 0.442597 0.598579 2.066539
v 0.442597 0.598579 1.901133
vt 0.862242 0.344359
vt 0.862242 0.179079
vt 0.841582 0.179079
vt 0.841582 0.344359
vt 0.820921 0.179079
vt 0.820921 0.344359
vt 0.800261 0.179079
vt 0.800261 0.344359
vt 0.779601 0.179079
vt 0.779601 0.344359
vt 0.758941 0.179079
vt 0.758941 0.344359
vt 0.738281 0.179079
vt 0.738281 0.344359
vt 0.717621 0.179079
vt 0.717621 0.344359
vt 0.696961 0.179079
vt 0.696961 0.344359
vt 0.676301 0.179079
vt 0.676301 0.344359
vt 0.655641 0.179079
vt 0.655641 0.344359
vt 0.634981 0.179079
vt 0.634981 0.344359
vt 0.614321 0.179079
vt 0.614321 0.344359
vt 0.593661 0.179079
vt 0.593661 0.344359
vt 0.573001 0.179079
vt 0.573001 0.344359
vt 0.750000 0.486094
vt 0.841844 0.467825
vt 0.919706 0.415799
vt 0.971731 0.337938
vt 0.990000 0.246094
vt 0.971731 0.154250
vt 0.919706 0.076388
vt 0.841844 0.024363
vt 0.750000 0.006094
vt 0.658156 0.024363
vt 0.580294 0.076388
vt 0.528269 0.154250
vt 0.510000 0.246094
vt 0.528269 0.337938
vt 0.580294 0.415799
vt 0.658156 0.467825
vt 0.903562 0.344359
vt 0.903562 0.179079
vt 0.882902 0.179079
vt 0.882902 0.344359
vt 0.750000 0.490000
vt 0.658156 0.471731
vt 0.580294 0.419706
vt 0.528269 0.341844
vt 0.510000 0.250000
vt 0.528269 0.158156
vt 0.580294 0.080294
vt 0.658156 0.028269
vt 0.750000 0.010000
vt 0.841844 0.028269
vt 0.919706 0.080294
vt 0.971731 0.158156
vt 0.990000 0.250000
vt 0.971731 0.341844
vt 0.919706 0.419706
vt 0.841844 0.471731
vn 0.8315 0.5556 -0.0000
vn 0.9808 0.1951 -0.0000
vn 0.9808 -0.1951 0.0000
vn 0.8315 -0.5556 0.0000
vn 0.5556 -0.8315 0.0000
vn 0.1951 -0.9808 0.0000
vn -0.1951 -0.9808 0.0000
vn -0.5556 -0.8315 0.0000
vn -0.8315 -0.5556 0.0000
vn -0.9808 -0.1951 0.0000
vn -0.9808 0.1951 0.0000
vn -0.8315 0.5556 0.0000
vn -0.5556 0.8315 0.0000
vn -0.1951 0.9808 0.0000
vn -0.0000 0.0000 -1.0000
vn 0.1951 0.9808 0.0000
vn 0.0000 0.0000 1.0000
vn 0.5556 0.8315 0.0000
usemtl Material.001
s off
f 134/295/79 133/296/79 135/297/79 136/298/79
f 136/298/80 135/297/80 137/299/80 138/300/80
f 138/300/81 137/299/81 139/301/81 140/302/81
f 140/302/82 139/301/82 141/303/82 142/304/82
f 142/304/83 141/303/83 143/305/83 144/306/83
f 144/306/84 143/305/84 145/307/84 146/308/84
f 146/308/85 145/307/85 147/309/85 148/310/85
f 148/310/86 147/309/86 149/311/86 150/312/86
f 150/312/87 149/311/87 151/313/87 152/314/87
f 152/314/88 151/313/88 153/315/88 154/316/88
f 154/316/89 153/315/89 155/317/89 156/318/89
f 156/318/90 155/317/90 157/319/90 158/320/90
f 158/320/91 157/319/91 159/321/91 160/322/91
f 160/322/92 159/321/92 129/323/92 130/324/92
f 130/325/93 132/326/93 134/327/93 136/328/93 138/329/93 140/330/93 142/331/93 144/332/93 146/333/93 148/334/93 150/335/93 152/336/93 154/337/93 156/338/93 158/339/93 160/340/93
f 130/341/94 129/342/94 131/343/94 132/344/94
f 129/345/95 159/346/95 157/347/95 155/348/95 153/349/95 151/350/95 149/351/95 147/352/95 145/353/95 143/354/95 141/355/95 139/356/95 137/357/95 135/358/95 133/359/95 131/360/95
f 132/344/96 131/343/96 133/296/96 134/295/96
