# Blender v2.93.1 OBJ File: 'cosma8_door.blend'
# www.blender.org
mtllib cosma8_door.mtl
o Cube.003
v 0.004471 0.030193 1.944679
v 0.004471 2.655195 1.944679
v 0.004471 0.030193 1.798977
v 0.004471 2.655195 1.798977
v 0.998323 0.030193 1.944679
v 0.998323 2.655195 1.944679
v 0.998323 0.030193 1.798977
v 0.998323 2.655195 1.798977
v 0.296230 0.032951 2.203376
v 0.296230 2.657460 2.203376
v 0.238475 0.032951 2.084306
v 0.238475 2.657460 2.084306
v 0.697308 0.032951 2.203376
v 0.697308 2.657460 2.203376
v 0.763268 0.032951 2.084306
v 0.763268 2.657460 2.084306
v 0.211080 0.030203 2.085437
v 0.211080 2.657336 2.085437
v 0.104441 0.030203 1.944931
v 0.104441 2.657336 1.944931
v 0.792727 0.030203 2.085437
v 0.792727 2.657336 2.085437
v 0.896751 0.030203 1.944931
v 0.896751 2.657336 1.944931
vt 0.490802 0.504541
vt 0.490802 0.999458
vt 0.464029 0.999458
vt 0.464029 0.504541
vt 0.189969 0.002588
vt 0.189969 0.497505
vt 0.002588 0.497505
vt 0.002588 0.002588
vt 0.522575 0.504541
vt 0.522575 0.999458
vt 0.495979 0.999458
vt 0.495979 0.504541
vt 0.382526 0.002588
vt 0.382526 0.497505
vt 0.195145 0.497505
vt 0.195145 0.002588
vt 0.030059 0.502681
vt 0.030059 0.690062
vt 0.002588 0.690062
vt 0.002588 0.502681
vt 0.062706 0.502681
vt 0.062706 0.690061
vt 0.035236 0.690061
vt 0.035236 0.502681
vt 0.711442 0.502588
vt 0.711442 0.997412
vt 0.687125 0.997412
vt 0.687125 0.502588
vt 0.756045 0.002588
vt 0.756045 0.497412
vt 0.657101 0.497412
vt 0.657101 0.002588
vt 0.681948 0.502588
vt 0.681948 0.997412
vt 0.657101 0.997412
vt 0.657101 0.502588
vt 0.987255 0.009604
vt 0.987255 0.990396
vt 0.837370 0.990396
vt 0.837370 0.009604
vt 0.158844 0.601625
vt 0.158844 0.502681
vt 0.181294 0.515117
vt 0.181294 0.590736
vt 0.131218 0.601625
vt 0.131218 0.502681
vt 0.153668 0.513570
vt 0.153668 0.589189
vt 0.458852 0.504541
vt 0.458852 0.999859
vt 0.428532 0.999859
vt 0.428532 0.504541
vt 0.537084 0.002588
vt 0.537084 0.497906
vt 0.387702 0.497906
vt 0.387702 0.002588
vt 0.423355 0.504541
vt 0.423355 0.999859
vt 0.392799 0.999859
vt 0.392799 0.504541
vt 0.651924 0.002588
vt 0.651924 0.497906
vt 0.542261 0.497906
vt 0.542261 0.002588
vt 0.099551 0.652063
vt 0.099551 0.502681
vt 0.126042 0.522294
vt 0.126042 0.631957
vt 0.067883 0.652063
vt 0.067883 0.502681
vt 0.094374 0.522787
vt 0.094374 0.632450
vn -1.0000 0.0000 0.0000
vn 0.0000 0.0000 -1.0000
vn 1.0000 0.0000 0.0000
vn 0.0000 0.0000 1.0000
vn 0.0000 -1.0000 0.0000
vn 0.0000 1.0000 0.0000
vn -0.8997 0.0000 0.4364
vn 0.8748 0.0000 0.4846
vn -0.7966 0.0000 0.6046
vn 0.8037 0.0000 0.5950
usemtl Material
s off
f 1/1/1 2/2/1 4/3/1 3/4/1
f 3/5/2 4/6/2 8/7/2 7/8/2
f 7/9/3 8/10/3 6/11/3 5/12/3
f 5/13/4 6/14/4 2/15/4 1/16/4
f 3/17/5 7/18/5 5/19/5 1/20/5
f 8/21/6 4/22/6 2/23/6 6/24/6
f 9/25/7 10/26/7 12/27/7 11/28/7
f 11/29/2 12/30/2 16/31/2 15/32/2
f 15/33/8 16/34/8 14/35/8 13/36/8
f 13/37/4 14/38/4 10/39/4 9/40/4
f 11/41/5 15/42/5 13/43/5 9/44/5
f 16/45/6 12/46/6 10/47/6 14/48/6
f 17/49/9 18/50/9 20/51/9 19/52/9
f 19/53/2 20/54/2 24/55/2 23/56/2
f 23/57/10 24/58/10 22/59/10 21/60/10
f 21/61/4 22/62/4 18/63/4 17/64/4
f 19/65/5 23/66/5 21/67/5 17/68/5
f 24/69/6 20/70/6 18/71/6 22/72/6
