# Blender v2.93.3 OBJ File: 'exchangers.blend'
# www.blender.org
mtllib exchangers.mtl
o Cube.003
v 0.151372 0.005146 1.735350
v 0.151372 2.525670 1.735350
v 0.131764 0.005146 1.693584
v 0.131764 2.525670 1.693584
v 1.008344 0.005146 1.333021
v 1.008344 2.525670 1.333021
v 0.988736 0.005146 1.291255
v 0.988736 2.525670 1.291255
v 0.000147 0.005146 1.332326
v 0.000147 2.525670 1.332326
v 0.000147 0.005146 0.008130
v 0.000147 2.525670 0.008130
v 0.946863 0.005146 1.332326
v 0.946863 2.525670 1.332326
v 0.946863 0.005146 0.008130
v 0.946863 2.525670 0.008130
v 0.974298 0.005146 1.332326
v 0.974298 2.525670 1.332326
v 0.974298 0.005146 0.008130
v 0.974298 2.525670 0.008130
v 1.921013 0.005146 1.332326
v 1.921013 2.525670 1.332326
v 1.921013 0.005146 0.008130
v 1.921013 2.525670 0.008130
vt 0.503892 0.122387
vt 0.234446 0.122202
vt 0.234449 0.117481
vt 0.503896 0.117666
vt 0.495766 0.179385
vt 0.219586 0.181680
vt 0.218761 0.082387
vt 0.494941 0.080092
vt 0.533544 0.137940
vt 0.264097 0.137755
vt 0.264100 0.133033
vt 0.533547 0.133219
vt 0.621233 0.240895
vt 0.621233 0.986598
vt 0.353137 0.986598
vt 0.353137 0.240895
vt 0.379026 0.122711
vt 0.277821 0.122642
vt 0.277824 0.117709
vt 0.379029 0.117779
vt 0.401020 0.089828
vt 0.299815 0.089758
vt 0.299818 0.084826
vt 0.401023 0.084895
vt 0.469967 0.203324
vt 0.200520 0.203138
vt 0.200617 0.063071
vt 0.470063 0.063256
vt 0.312924 0.269326
vt 0.312924 0.969475
vt 0.052715 0.969475
vt 0.052715 0.269326
vt 0.510441 0.184676
vt 0.240995 0.184490
vt 0.241091 0.044423
vt 0.510538 0.044608
vt 0.494865 0.182091
vt 0.218685 0.184386
vt 0.217832 0.081745
vt 0.494012 0.079450
vt 0.344385 0.033458
vt 0.344315 0.134663
vt 0.202757 0.134565
vt 0.202827 0.033360
vt 0.371748 0.047868
vt 0.371678 0.149073
vt 0.230120 0.148975
vt 0.230190 0.047770
vt 0.459904 0.188072
vt 0.190457 0.187887
vt 0.190554 0.047819
vt 0.460000 0.048005
vt 0.303458 0.268924
vt 0.303458 0.969074
vt 0.043249 0.969074
vt 0.043249 0.268924
vt 0.531292 0.216617
vt 0.261846 0.216431
vt 0.261942 0.076364
vt 0.531389 0.076550
vt 0.635975 0.990234
vt 0.635975 0.032633
vt 0.991865 0.032633
vt 0.991865 0.990234
vt 0.245130 0.163208
vt 0.245200 0.062003
vt 0.386758 0.062100
vt 0.386688 0.163305
vt 0.209952 0.196209
vt 0.210022 0.095004
vt 0.351580 0.095102
vt 0.351510 0.196307
vn -0.9052 0.0000 0.4250
vn -0.4250 0.0000 -0.9052
vn 0.9052 0.0000 -0.4250
vn 0.4250 0.0000 0.9052
vn 0.0000 -1.0000 0.0000
vn 0.0000 1.0000 0.0000
vn -1.0000 0.0000 -0.0000
vn 0.0000 0.0000 -1.0000
vn 1.0000 0.0000 -0.0000
vn 0.0000 0.0000 1.0000
usemtl Material.001
s off
f 1/1/1 2/2/1 4/3/1 3/4/1
f 3/5/2 4/6/2 8/7/2 7/8/2
f 7/9/3 8/10/3 6/11/3 5/12/3
f 5/13/4 6/14/4 2/15/4 1/16/4
f 3/17/5 7/18/5 5/19/5 1/20/5
f 8/21/6 4/22/6 2/23/6 6/24/6
f 9/25/7 10/26/7 12/27/7 11/28/7
f 11/29/8 12/30/8 16/31/8 15/32/8
f 15/33/9 16/34/9 14/35/9 13/36/9
f 13/37/10 14/38/10 10/39/10 9/40/10
f 11/41/5 15/42/5 13/43/5 9/44/5
f 16/45/6 12/46/6 10/47/6 14/48/6
f 17/49/7 18/50/7 20/51/7 19/52/7
f 19/53/8 20/54/8 24/55/8 23/56/8
f 23/57/9 24/58/9 22/59/9 21/60/9
f 21/61/10 22/62/10 18/63/10 17/64/10
f 19/65/5 23/66/5 21/67/5 17/68/5
f 24/69/6 20/70/6 18/71/6 22/72/6
