# Blender v2.93.1 OBJ File: 'handlebar_2u.blend'
# www.blender.org
mtllib handlebar_2u.mtl
o Chassis_Cube
v 0.789300 0.181870 0.166100
v 0.789300 0.066130 0.166100
v 0.789300 0.181870 1.071160
v 0.789300 0.066130 1.071160
v 0.210700 0.181870 0.166100
v 0.210700 0.066130 0.166100
v 0.210700 0.181870 1.071160
v 0.210700 0.066130 1.071160
vt 0.547007 0.595797
vt 0.708839 0.595797
vt 0.708839 0.757629
vt 0.547007 0.757629
vt 0.938561 0.376174
vt 0.938561 0.580338
vt 0.399299 0.580338
vt 0.399299 0.376174
vt 0.708799 0.596570
vt 0.708799 0.758401
vt 0.546967 0.758401
vt 0.546967 0.596570
vt 0.548492 0.595797
vt 0.710324 0.595797
vt 0.710324 0.757629
vt 0.548492 0.757629
vt 0.708819 0.595817
vt 0.708819 0.757649
vt 0.546987 0.595817
vt 0.710304 0.595084
vt 0.710304 0.756916
vt 0.548472 0.756916
vt 0.548472 0.595084
vn 0.0000 1.0000 0.0000
vn 0.0000 0.0000 1.0000
vn -1.0000 0.0000 0.0000
vn 0.0000 -1.0000 0.0000
vn 1.0000 0.0000 0.0000
vn 0.0000 0.0000 -1.0000
usemtl Material
s off
f 1/1/1 5/2/1 7/3/1 3/4/1
f 4/5/2 3/6/2 7/7/2 8/8/2
f 8/9/3 7/10/3 5/11/3 6/12/3
f 6/13/4 2/14/4 4/15/4 8/16/4
f 2/17/5 1/18/5 3/4/5 4/19/5
f 6/20/6 5/21/6 1/22/6 2/23/6
o Front_Panel_Cube.002
v 0.821300 0.181870 0.136720
v 0.821300 0.066130 0.136720
v 0.821300 0.181870 0.166060
v 0.821300 0.066130 0.166060
v 0.178700 0.181870 0.136720
v 0.178700 0.066130 0.136720
v 0.178700 0.181870 0.166060
v 0.178700 0.066130 0.166060
vt 0.036471 0.351844
vt 0.191781 0.351844
vt 0.191781 0.507155
vt 0.036471 0.507155
vt 0.978024 0.001550
vt 0.978023 0.334884
vt 0.021894 0.334883
vt 0.021894 0.001550
vt 0.194632 0.351864
vt 0.194632 0.507174
vt 0.039321 0.507174
vt 0.039321 0.351864
vt 0.038618 0.351844
vt 0.193929 0.351844
vt 0.193929 0.507155
vt 0.038618 0.507155
vt 0.193207 0.352586
vt 0.193207 0.507896
vt 0.037896 0.507896
vt 0.037896 0.352586
vt 0.193187 0.353327
vt 0.193187 0.508638
vt 0.037877 0.508638
vt 0.037877 0.353327
vn 0.0000 1.0000 0.0000
vn 0.0000 0.0000 1.0000
vn -1.0000 0.0000 0.0000
vn 0.0000 -1.0000 0.0000
vn 1.0000 0.0000 0.0000
vn 0.0000 0.0000 -1.0000
usemtl Material
s off
f 9/24/7 13/25/7 15/26/7 11/27/7
f 12/28/8 11/29/8 15/30/8 16/31/8
f 16/32/9 15/33/9 13/34/9 14/35/9
f 14/36/10 10/37/10 12/38/10 16/39/10
f 10/40/11 9/41/11 11/42/11 12/43/11
f 14/44/12 13/45/12 9/46/12 10/47/12
o Bexel.001_Cube.005
v 0.707724 0.149562 0.114004
v 0.707724 0.098438 0.114004
v 0.707724 0.149562 0.124560
v 0.707724 0.098438 0.124560
v 0.292276 0.149562 0.114004
v 0.292276 0.098438 0.114004
v 0.292276 0.149562 0.124560
v 0.292276 0.098438 0.124560
v 0.707724 0.098459 0.124536
v 0.785815 0.066229 0.147160
v 0.707724 0.149531 0.124536
v 0.785815 0.181851 0.147160
v 0.707724 0.098459 0.113999
v 0.785815 0.066229 0.136622
v 0.707724 0.149531 0.113999
v 0.785815 0.181906 0.136622
v 0.292276 0.098446 0.114030
v 0.211879 0.066301 0.136803
v 0.292276 0.149577 0.114030
v 0.211879 0.181280 0.136803
v 0.292276 0.098446 0.124474
v 0.211879 0.066301 0.147247
v 0.292276 0.149577 0.124474
v 0.211879 0.181280 0.147247
vt 0.042541 0.676170
vt 0.188535 0.676214
vt 0.191000 0.676103
vt 0.040085 0.676059
vt 0.040418 0.652348
vt 0.190666 0.652305
vt 0.064654 0.612183
vt 0.085265 0.683648
vt 0.095291 0.667779
vt 0.074031 0.596793
vt 0.188203 0.652469
vt 0.042872 0.652512
vt 0.140104 0.639531
vt 0.123225 0.678230
vt 0.119609 0.690037
vt 0.136602 0.650871
vt 0.797734 0.855133
vt 0.797734 0.930894
vt 0.182073 0.930894
vt 0.182073 0.855133
vt 0.040423 0.652358
vt 0.036442 0.644687
vt 0.035897 0.683284
vt 0.040091 0.676046
vt 0.037678 0.683433
vt 0.042543 0.676156
vt 0.182072 0.930848
vt 0.066349 0.978825
vt 0.066349 0.807401
vt 0.182073 0.855164
vt 0.042874 0.652522
vt 0.038225 0.644755
vt 0.119628 0.689986
vt 0.123238 0.678199
vt 0.140100 0.639540
vt 0.136604 0.650861
vt 0.052948 0.691958
vt 0.050654 0.701579
vt 0.093630 0.631735
vt 0.095888 0.622928
vt 0.797734 0.855144
vt 0.916875 0.807508
vt 0.916875 0.977898
vt 0.797734 0.930915
vt 0.188541 0.676220
vt 0.193430 0.683128
vt 0.195185 0.682999
vt 0.190980 0.676111
vt 0.194646 0.644811
vt 0.190646 0.652310
vt 0.192889 0.644877
vt 0.188209 0.652472
vt 0.095273 0.667838
vt 0.085353 0.683540
vt 0.064733 0.612067
vt 0.074012 0.596840
vt 0.132485 0.717064
vt 0.138729 0.708319
vt 0.103042 0.612723
vt 0.097682 0.620939
vn 0.0000 1.0000 0.0000
vn 0.0000 0.0000 1.0000
vn -1.0000 0.0000 0.0000
vn 0.0000 -1.0000 0.0000
vn 1.0000 0.0000 0.0000
vn 0.0000 0.0000 -1.0000
vn -0.2783 0.0000 0.9605
vn -0.3833 0.9236 0.0024
vn 0.2783 0.0000 -0.9605
vn -0.3815 -0.9244 0.0000
vn -0.2725 0.0000 -0.9621
vn 0.3669 0.9303 0.0000
vn 0.2725 0.0000 0.9621
vn 0.3713 -0.9285 0.0000
usemtl Material
s off
f 17/48/13 21/49/13 23/50/13 19/51/13
f 20/52/14 19/51/14 23/50/14 24/53/14
f 24/54/15 23/55/15 21/56/15 22/57/15
f 22/58/16 18/59/16 20/52/16 24/53/16
f 18/60/17 17/61/17 19/62/17 20/63/17
f 22/64/18 21/65/18 17/66/18 18/67/18
f 25/68/19 26/69/19 28/70/19 27/71/19
f 27/71/20 28/70/20 32/72/20 31/73/20
f 31/74/21 32/75/21 30/76/21 29/77/21
f 29/78/22 30/79/22 26/69/22 25/68/22
f 27/80/15 31/81/15 29/82/15 25/83/15
f 32/84/17 28/85/17 26/86/17 30/87/17
f 33/88/23 34/89/23 36/90/23 35/91/23
f 35/92/24 36/93/24 40/94/24 39/95/24
f 39/95/25 40/94/25 38/96/25 37/97/25
f 37/97/26 38/96/26 34/98/26 33/99/26
f 35/100/17 39/101/17 37/102/17 33/103/17
f 40/104/15 36/105/15 34/106/15 38/107/15
