# Blender v2.93.1 OBJ File: 'mellanox_HDR_switch.blend'
# www.blender.org
mtllib mellanox_quantum_switch.mtl
o Cube_Cube.001
v 0.210670 0.069000 0.961970
v 0.210670 0.122340 0.961970
v 0.210670 0.069000 0.167370
v 0.210670 0.122340 0.167370
v 0.789330 0.069000 0.961970
v 0.789330 0.122340 0.961970
v 0.789330 0.069000 0.167370
v 0.789330 0.122340 0.167370
vt 0.025569 0.703784
vt 0.275569 0.703784
vt 0.275569 0.953784
vt 0.025569 0.953784
vt 0.995914 -0.004133
vt 0.995914 0.254133
vt 0.006977 0.254133
vt 0.006977 -0.004133
vt 0.015726 0.723931
vt 0.265726 0.723931
vt 0.265726 0.973931
vt 0.015726 0.973931
vt 0.995576 0.262306
vt 0.995576 0.518944
vt 0.012237 0.518944
vt 0.012237 0.262306
vt 0.056098 0.687020
vt 0.306098 0.687020
vt 0.306098 0.937020
vt 0.056098 0.937020
vt 0.621148 0.625055
vt 0.980414 0.625055
vt 0.980414 0.984320
vt 0.621148 0.984320
vn -1.0000 0.0000 0.0000
vn 0.0000 0.0000 -1.0000
vn 1.0000 0.0000 0.0000
vn 0.0000 0.0000 1.0000
vn 0.0000 -1.0000 0.0000
vn 0.0000 1.0000 0.0000
usemtl Material.001
s off
f 1/1/1 2/2/1 4/3/1 3/4/1
f 3/5/2 4/6/2 8/7/2 7/8/2
f 7/9/3 8/10/3 6/11/3 5/12/3
f 5/13/4 6/14/4 2/15/4 1/16/4
f 3/17/5 7/18/5 5/19/5 1/20/5
f 8/21/6 4/22/6 2/23/6 6/24/6
