# Blender v2.92.0 OBJ File: 'R740_hex.blend'
# www.blender.org
mtllib r740_hex_simple.mtl
o Chassis_Cube
v 0.789300 0.181870 0.166100
v 0.789300 0.066130 0.166100
v 0.789300 0.181870 1.071160
v 0.789300 0.066130 1.071160
v 0.210700 0.181870 0.166100
v 0.210700 0.066130 0.166100
v 0.210700 0.181870 1.071160
v 0.210700 0.066130 1.071160
vt 0.751391 0.574897
vt 0.975172 0.574897
vt 0.975172 0.979791
vt 0.751391 0.979791
vt 0.014799 0.873895
vt 0.121920 0.873895
vt 0.121920 0.981016
vt 0.014799 0.981016
vt 0.015636 0.875569
vt 0.122757 0.875569
vt 0.122757 0.982690
vt 0.015636 0.982690
vt 0.014799 0.876406
vt 0.121920 0.876406
vt 0.121920 0.983527
vt 0.014799 0.983527
vt 0.014799 0.876406
vt 0.121920 0.876406
vt 0.121920 0.983527
vt 0.014799 0.983527
vt 0.013962 0.875569
vt 0.121083 0.875569
vt 0.121083 0.982690
vt 0.013962 0.982690
vn 0.0000 1.0000 0.0000
vn 0.0000 0.0000 1.0000
vn -1.0000 0.0000 0.0000
vn 0.0000 -1.0000 0.0000
vn 1.0000 0.0000 0.0000
vn 0.0000 0.0000 -1.0000
usemtl Material.007
s off
f 1/1/1 5/2/1 7/3/1 3/4/1
f 4/5/2 3/6/2 7/7/2 8/8/2
f 8/9/3 7/10/3 5/11/3 6/12/3
f 6/13/4 2/14/4 4/15/4 8/16/4
f 2/17/5 1/18/5 3/19/5 4/20/5
f 6/21/6 5/22/6 1/23/6 2/24/6
o Front_Panel_Cube.002
v 0.821300 0.181870 0.136720
v 0.821300 0.066130 0.136720
v 0.821300 0.181870 0.166060
v 0.821300 0.066130 0.166060
v 0.178700 0.181870 0.136720
v 0.178700 0.066130 0.136720
v 0.178700 0.181870 0.166060
v 0.178700 0.066130 0.166060
vt 0.119709 0.276208
vt 0.171626 0.276208
vt 0.171626 0.328125
vt 0.119709 0.328125
vt 0.067791 0.328125
vt 0.119709 0.380042
vt 0.067791 0.380042
vt 0.055416 0.281978
vt 0.132084 0.281978
vt 0.132084 0.358647
vt 0.055416 0.358647
vt 0.015874 0.276208
vt 0.067791 0.276208
vt 0.015874 0.328125
vt 0.248047 0.269511
vt 0.498047 0.269511
vt 0.498047 0.730489
vt 0.248047 0.730489
vn 0.0000 1.0000 0.0000
vn 0.0000 0.0000 1.0000
vn -1.0000 0.0000 0.0000
vn 0.0000 -1.0000 0.0000
vn 1.0000 0.0000 0.0000
vn 0.0000 0.0000 -1.0000
usemtl Material.007
s off
f 9/25/7 13/26/7 15/27/7 11/28/7
f 12/29/8 11/28/8 15/30/8 16/31/8
f 16/32/9 15/33/9 13/34/9 14/35/9
f 14/36/10 10/37/10 12/29/10 16/38/10
f 10/37/11 9/25/11 11/28/11 12/29/11
f 14/39/12 13/40/12 9/41/12 10/42/12
o Cylinder
v 0.715811 0.160165 0.118861
v 0.715811 0.160165 0.138861
v 0.717762 0.159973 0.118861
v 0.717762 0.159973 0.138861
v 0.719638 0.159404 0.118861
v 0.719638 0.159404 0.138861
v 0.721367 0.158480 0.118861
v 0.721367 0.158480 0.138861
v 0.722882 0.157236 0.118861
v 0.722882 0.157236 0.138861
v 0.724126 0.155721 0.118861
v 0.724126 0.155721 0.138861
v 0.725050 0.153992 0.118861
v 0.725050 0.153992 0.138861
v 0.725619 0.152116 0.118861
v 0.725619 0.152116 0.138861
v 0.725811 0.150165 0.118861
v 0.725811 0.150165 0.138861
v 0.725619 0.148214 0.118861
v 0.725619 0.148214 0.138861
v 0.725050 0.146338 0.118861
v 0.725050 0.146338 0.138861
v 0.724126 0.144609 0.118861
v 0.724126 0.144609 0.138861
v 0.722882 0.143094 0.118861
v 0.722882 0.143094 0.138861
v 0.721367 0.141850 0.118861
v 0.721367 0.141850 0.138861
v 0.719638 0.140926 0.118861
v 0.719638 0.140926 0.138861
v 0.717762 0.140357 0.118861
v 0.717762 0.140357 0.138861
v 0.715811 0.140165 0.118861
v 0.715811 0.140165 0.138861
v 0.713860 0.140357 0.118861
v 0.713860 0.140357 0.138861
v 0.711985 0.140926 0.118861
v 0.711985 0.140926 0.138861
v 0.710256 0.141850 0.118861
v 0.710256 0.141850 0.138861
v 0.708740 0.143094 0.118861
v 0.708740 0.143094 0.138861
v 0.707497 0.144609 0.118861
v 0.707497 0.144609 0.138861
v 0.706573 0.146338 0.118861
v 0.706573 0.146338 0.138861
v 0.706004 0.148214 0.118861
v 0.706004 0.148214 0.138861
v 0.705811 0.150165 0.118861
v 0.705811 0.150165 0.138861
v 0.706004 0.152116 0.118861
v 0.706004 0.152116 0.138861
v 0.706573 0.153992 0.118861
v 0.706573 0.153992 0.138861
v 0.707497 0.155721 0.118861
v 0.707497 0.155721 0.138861
v 0.708740 0.157236 0.118861
v 0.708740 0.157236 0.138861
v 0.710256 0.158480 0.118861
v 0.710256 0.158480 0.138861
v 0.711985 0.159404 0.118861
v 0.711985 0.159404 0.138861
v 0.713861 0.159973 0.118861
v 0.713861 0.159973 0.138861
vt 0.111382 0.701145
vt 0.111382 0.798855
vt 0.105275 0.798855
vt 0.105275 0.701145
vt 0.099168 0.798855
vt 0.099168 0.701145
vt 0.093061 0.798855
vt 0.093061 0.701145
vt 0.086954 0.798855
vt 0.086954 0.701145
vt 0.080847 0.798855
vt 0.080847 0.701145
vt 0.074740 0.798855
vt 0.074740 0.701145
vt 0.068634 0.798855
vt 0.068634 0.701145
vt 0.062527 0.798855
vt 0.062527 0.701145
vt 0.056420 0.798855
vt 0.056420 0.701145
vt 0.050313 0.798855
vt 0.050313 0.701145
vt 0.044206 0.798855
vt 0.044206 0.701145
vt 0.038099 0.798855
vt 0.038099 0.701145
vt 0.031993 0.798855
vt 0.031993 0.701145
vt 0.025886 0.798855
vt 0.025886 0.701145
vt 0.019779 0.798855
vt 0.019779 0.701145
vt 0.013672 0.798855
vt 0.013672 0.701145
vt 0.109128 0.798855
vt 0.109128 0.701145
vt 0.103021 0.798855
vt 0.103021 0.701145
vt 0.096914 0.798855
vt 0.096914 0.701145
vt 0.090807 0.798855
vt 0.090807 0.701145
vt 0.084700 0.798855
vt 0.084700 0.701145
vt 0.078593 0.798855
vt 0.078593 0.701145
vt 0.072487 0.798855
vt 0.072487 0.701145
vt 0.066380 0.798855
vt 0.066380 0.701145
vt 0.060273 0.798855
vt 0.060273 0.701145
vt 0.054166 0.798855
vt 0.054166 0.701145
vt 0.048059 0.798855
vt 0.048059 0.701145
vt 0.041952 0.798855
vt 0.041952 0.701145
vt 0.035845 0.798855
vt 0.035845 0.701145
vt 0.029739 0.798855
vt 0.029739 0.701145
vt 0.067349 0.792061
vt 0.058594 0.792923
vt 0.049839 0.792061
vt 0.041420 0.789507
vt 0.033662 0.785360
vt 0.026862 0.779779
vt 0.021281 0.772979
vt 0.017134 0.765220
vt 0.014580 0.756802
vt 0.013718 0.748047
vt 0.014580 0.739292
vt 0.017134 0.730873
vt 0.021281 0.723115
vt 0.026861 0.716315
vt 0.033662 0.710734
vt 0.041420 0.706587
vt 0.049839 0.704033
vt 0.058594 0.703171
vt 0.067349 0.704033
vt 0.075767 0.706587
vt 0.083526 0.710734
vt 0.090326 0.716315
vt 0.095907 0.723115
vt 0.100054 0.730873
vt 0.102608 0.739292
vt 0.103470 0.748047
vt 0.102608 0.756802
vt 0.100054 0.765220
vt 0.095907 0.772979
vt 0.090326 0.779779
vt 0.083526 0.785360
vt 0.075767 0.789507
vt 0.023632 0.798855
vt 0.023632 0.701145
vt 0.017525 0.798855
vt 0.017525 0.701145
vt 0.875000 0.487456
vt 0.897701 0.485220
vt 0.919530 0.478599
vt 0.939648 0.467846
vt 0.957281 0.453375
vt 0.971752 0.435741
vt 0.982505 0.415624
vt 0.989127 0.393795
vt 0.991363 0.371094
vt 0.989127 0.348393
vt 0.982505 0.326564
vt 0.971752 0.306446
vt 0.957281 0.288813
vt 0.939648 0.274342
vt 0.919530 0.263589
vt 0.897701 0.256967
vt 0.875000 0.254731
vt 0.852299 0.256967
vt 0.830470 0.263589
vt 0.810352 0.274342
vt 0.792719 0.288813
vt 0.778248 0.306446
vt 0.767495 0.326564
vt 0.760873 0.348393
vt 0.758637 0.371094
vt 0.760873 0.393795
vt 0.767495 0.415624
vt 0.778248 0.435741
vt 0.792719 0.453375
vt 0.810353 0.467846
vt 0.830470 0.478599
vt 0.852299 0.485220
vn 0.0980 0.9952 0.0000
vn 0.2903 0.9569 0.0000
vn 0.4714 0.8819 0.0000
vn 0.6344 0.7730 0.0000
vn 0.7730 0.6344 0.0000
vn 0.8819 0.4714 0.0000
vn 0.9569 0.2903 0.0000
vn 0.9952 0.0980 0.0000
vn 0.9952 -0.0980 0.0000
vn 0.9569 -0.2903 0.0000
vn 0.8819 -0.4714 0.0000
vn 0.7730 -0.6344 0.0000
vn 0.6344 -0.7730 0.0000
vn 0.4714 -0.8819 0.0000
vn 0.2903 -0.9569 0.0000
vn 0.0980 -0.9952 0.0000
vn -0.0980 -0.9952 0.0000
vn -0.2903 -0.9569 0.0000
vn -0.4714 -0.8819 0.0000
vn -0.6344 -0.7730 0.0000
vn -0.7730 -0.6344 0.0000
vn -0.8819 -0.4714 0.0000
vn -0.9569 -0.2903 0.0000
vn -0.9952 -0.0980 0.0000
vn -0.9952 0.0980 0.0000
vn -0.9569 0.2903 0.0000
vn -0.8819 0.4714 0.0000
vn -0.7730 0.6344 0.0000
vn -0.6344 0.7730 0.0000
vn -0.4714 0.8819 0.0000
vn 0.0000 0.0000 1.0000
vn -0.2903 0.9569 0.0000
vn -0.0980 0.9952 0.0000
vn 0.0000 0.0000 -1.0000
usemtl Material.007
s off
f 17/43/13 18/44/13 20/45/13 19/46/13
f 19/46/14 20/45/14 22/47/14 21/48/14
f 21/48/15 22/47/15 24/49/15 23/50/15
f 23/50/16 24/49/16 26/51/16 25/52/16
f 25/52/17 26/51/17 28/53/17 27/54/17
f 27/54/18 28/53/18 30/55/18 29/56/18
f 29/56/19 30/55/19 32/57/19 31/58/19
f 31/58/20 32/57/20 34/59/20 33/60/20
f 33/60/21 34/59/21 36/61/21 35/62/21
f 35/62/22 36/61/22 38/63/22 37/64/22
f 37/64/23 38/63/23 40/65/23 39/66/23
f 39/66/24 40/65/24 42/67/24 41/68/24
f 41/68/25 42/67/25 44/69/25 43/70/25
f 43/70/26 44/69/26 46/71/26 45/72/26
f 45/72/27 46/71/27 48/73/27 47/74/27
f 47/74/28 48/73/28 50/75/28 49/76/28
f 49/76/29 50/75/29 52/77/29 51/78/29
f 51/78/30 52/77/30 54/79/30 53/80/30
f 53/80/31 54/79/31 56/81/31 55/82/31
f 55/82/32 56/81/32 58/83/32 57/84/32
f 57/84/33 58/83/33 60/85/33 59/86/33
f 59/86/34 60/85/34 62/87/34 61/88/34
f 61/88/35 62/87/35 64/89/35 63/90/35
f 63/90/36 64/89/36 66/91/36 65/92/36
f 65/92/37 66/91/37 68/93/37 67/94/37
f 67/94/38 68/93/38 70/95/38 69/96/38
f 69/96/39 70/95/39 72/97/39 71/98/39
f 71/98/40 72/97/40 74/99/40 73/100/40
f 73/100/41 74/99/41 76/101/41 75/102/41
f 75/102/42 76/101/42 78/103/42 77/104/42
f 20/105/43 18/106/43 80/107/43 78/108/43 76/109/43 74/110/43 72/111/43 70/112/43 68/113/43 66/114/43 64/115/43 62/116/43 60/117/43 58/118/43 56/119/43 54/120/43 52/121/43 50/122/43 48/123/43 46/124/43 44/125/43 42/126/43 40/127/43 38/128/43 36/129/43 34/130/43 32/131/43 30/132/43 28/133/43 26/134/43 24/135/43 22/136/43
f 77/104/44 78/103/44 80/137/44 79/138/44
f 79/138/45 80/137/45 18/139/45 17/140/45
f 17/141/46 19/142/46 21/143/46 23/144/46 25/145/46 27/146/46 29/147/46 31/148/46 33/149/46 35/150/46 37/151/46 39/152/46 41/153/46 43/154/46 45/155/46 47/156/46 49/157/46 51/158/46 53/159/46 55/160/46 57/161/46 59/162/46 61/163/46 63/164/46 65/165/46 67/166/46 69/167/46 71/168/46 73/169/46 75/170/46 77/171/46 79/172/46
o Front_Panel.002_Cube.101
v 0.549633 0.134551 0.117734
v 0.549633 0.113437 0.117734
v 0.549633 0.134551 0.137026
v 0.549633 0.113437 0.137026
v 0.450374 0.134551 0.117734
v 0.450374 0.113437 0.117734
v 0.450374 0.134551 0.137026
v 0.450374 0.113437 0.137026
vt 0.090673 0.505504
vt 0.131394 0.505504
vt 0.131394 0.546225
vt 0.090673 0.546225
vt 0.049952 0.546225
vt 0.090673 0.586946
vt 0.049952 0.586946
vt 0.049952 0.518115
vt 0.090673 0.518115
vt 0.090673 0.558836
vt 0.049952 0.558836
vt 0.009231 0.505504
vt 0.049952 0.505504
vt 0.009231 0.546225
vt 0.523589 0.716482
vt 0.726411 0.716482
vt 0.726411 0.306956
vt 0.523589 0.306956
vn 0.0000 1.0000 0.0000
vn 0.0000 0.0000 1.0000
vn -1.0000 0.0000 0.0000
vn 0.0000 -1.0000 0.0000
vn 1.0000 0.0000 0.0000
vn 0.0000 0.0000 -1.0000
usemtl Material.007
s off
f 81/173/47 85/174/47 87/175/47 83/176/47
f 84/177/48 83/176/48 87/178/48 88/179/48
f 88/180/49 87/181/49 85/182/49 86/183/49
f 86/184/50 82/185/50 84/177/50 88/186/50
f 82/185/51 81/173/51 83/176/51 84/177/51
f 86/187/52 85/188/52 81/189/52 82/190/52
